<mxfile host="app.diagrams.net" modified="2023-11-02T08:33:18.576Z" agent="Mozilla/5.0 (Macintosh; Intel Mac OS X 10_15_7) AppleWebKit/605.1.15 (KHTML, like Gecko) Version/16.6 Safari/605.1.15" version="22.0.8" etag="3fbqoYcutKzyis7Rrad7" type="github">
  <diagram name="第 1 页" id="sOjMl4Azg0apG7W9CW-b">
    <mxGraphModel>
      <root>
        <mxCell id="0" />
        <mxCell id="1" parent="0" />
      </root>
    </mxGraphModel>
  </diagram>
</mxfile>
